<?xml version="1.0" standalone="no"?>
<!DOCTYPE svg PUBLIC "-//W3C//DTD SVG 20010904//EN"
 "http://www.w3.org/TR/2001/REC-SVG-20010904/DTD/svg10.dtd">
<svg version="1.0" xmlns="http://www.w3.org/2000/svg"
 width="500.000000pt" height="500.000000pt" viewBox="0 0 500.000000 500.000000"
 preserveAspectRatio="xMidYMid meet">

<g transform="translate(0.000000,500.000000) scale(0.100000,-0.100000)"
fill="#000000" stroke="none">
<path d="M2465 3407 c-97 -33 -164 -85 -200 -157 -23 -45 -31 -147 -16 -205
26 -104 89 -163 203 -191 60 -15 73 -15 140 -1 128 26 191 68 156 104 -17 16
-21 16 -73 -1 -128 -40 -213 -30 -286 32 -110 94 -85 232 54 304 54 27 121 25
196 -7 59 -24 65 -25 87 -10 31 20 30 40 -2 70 -65 60 -180 88 -259 62z"/>
<path d="M1441 3391 c-19 -19 -20 -31 -14 -270 l6 -249 -61 5 c-115 11 -361
-34 -472 -87 -25 -11 -36 -18 -25 -14 145 44 420 81 544 72 98 -7 101 -4 101
102 l0 89 92 -70 c125 -95 173 -123 202 -115 32 8 41 34 19 58 -10 11 -70 60
-135 109 -64 49 -120 93 -123 99 -4 7 98 102 228 211 32 27 29 59 -5 59 -33 0
-132 -58 -207 -122 l-71 -59 0 90 c0 79 -2 92 -19 101 -28 14 -38 13 -60 -9z"/>
<path d="M3170 3390 c-19 -19 -19 -30 -14 -247 3 -126 7 -242 10 -260 5 -36
32 -50 64 -33 18 10 20 20 20 100 l0 89 92 -70 c125 -95 173 -123 202 -115 32
8 41 34 19 58 -10 11 -70 60 -135 109 -64 49 -120 93 -123 99 -4 7 98 102 228
211 32 27 29 59 -5 59 -33 0 -132 -58 -207 -122 l-71 -59 0 90 c0 79 -2 92
-19 101 -28 14 -38 13 -61 -10z"/>
<path d="M3812 3048 c-7 -7 -12 -24 -12 -38 0 -98 -72 -201 -173 -249 -110
-52 -189 -64 -441 -69 -242 -4 -468 6 -786 38 -800 80 -1180 79 -1455 -6 -81
-26 -205 -86 -205 -101 0 -18 3 -17 60 12 145 73 350 105 678 105 207 0 589
-19 692 -35 100 -15 620 -57 818 -66 358 -16 563 5 697 74 61 30 139 112 166
172 24 53 28 153 8 166 -19 12 -33 11 -47 -3z"/>
<path d="M3920 2908 c-30 -113 -87 -189 -173 -233 -54 -28 -29 -28 37 0 90 38
209 198 191 255 -12 37 -43 24 -55 -22z"/>
<path d="M1463 2483 c-10 -3 -13 -36 -13 -119 l0 -114 30 0 c29 0 30 1 30 48
1 38 3 44 11 29 8 -13 18 -17 35 -13 22 6 24 3 24 -29 0 -28 4 -35 20 -35 19
0 20 7 20 110 0 106 -1 110 -22 110 -12 0 -30 -8 -40 -17 -17 -16 -19 -15 -33
4 -15 22 -42 33 -62 26z"/>
<path d="M2050 2451 c0 -25 5 -41 15 -45 10 -3 15 -19 15 -46 0 -29 -4 -40
-15 -40 -11 0 -15 -11 -15 -36 l0 -35 43 3 c35 2 43 7 45 26 2 13 -3 25 -12
28 -22 8 -23 102 -1 110 9 4 15 19 15 40 0 34 -1 34 -45 34 l-45 0 0 -39z"/>
<path d="M2390 2396 c0 -51 5 -106 10 -122 10 -29 11 -29 73 -24 52 4 62 8 66
25 2 11 8 23 14 26 22 14 -2 39 -38 39 -33 0 -35 -2 -29 -25 5 -22 3 -25 -20
-25 -19 0 -27 6 -32 25 -10 39 1 55 40 55 38 0 46 12 46 70 0 34 -3 38 -31 44
-17 3 -47 6 -65 6 l-34 0 0 -94z"/>
<path d="M2887 2484 c-12 -13 -8 -52 8 -68 8 -8 15 -32 15 -54 0 -26 -5 -42
-15 -46 -9 -3 -15 -18 -15 -36 0 -29 2 -30 45 -30 43 0 45 1 45 30 0 17 -4 30
-10 30 -5 0 -10 25 -10 55 0 43 3 55 16 55 11 0 14 8 12 33 -3 30 -6 32 -43
35 -23 2 -44 0 -48 -4z"/>
<path d="M3010 2421 l0 -71 30 0 c29 0 30 -2 30 -44 0 -40 11 -56 36 -56 2 0
4 23 4 50 0 48 1 51 30 57 29 5 30 7 30 64 0 51 -3 59 -19 59 -10 0 -46 3 -80
6 l-61 7 0 -72z"/>
<path d="M1666 2413 c-4 -37 -9 -87 -12 -109 -5 -40 -4 -42 27 -48 47 -9 49
-8 49 19 0 30 26 34 35 5 4 -11 15 -20 26 -20 21 0 21 17 0 170 l-6 45 -57 3
-56 3 -6 -68z m94 -48 c0 -18 -5 -25 -20 -25 -15 0 -20 7 -20 25 0 18 5 25 20
25 15 0 20 -7 20 -25z"/>
<path d="M1857 2473 c-9 -8 -9 -160 -1 -190 10 -38 34 -28 34 14 l0 37 38 -37
c60 -59 85 -46 35 19 l-26 35 41 42 42 43 -22 22 -22 22 -38 -37 -38 -37 0 37
c0 29 -4 37 -18 37 -10 0 -22 -3 -25 -7z"/>
<path d="M2308 2418 l-3 -63 -28 53 c-24 45 -31 52 -58 52 l-30 0 3 -102 c3
-98 4 -103 26 -106 20 -3 22 1 22 40 l0 43 26 -42 c20 -35 31 -43 55 -43 l29
0 0 115 c0 107 -1 115 -20 115 -16 0 -19 -8 -22 -62z"/>
<path d="M2703 2470 c-21 -8 -23 -16 -23 -75 l0 -65 40 -6 c49 -8 53 -24 5
-24 -28 0 -35 -4 -35 -20 0 -18 7 -20 80 -20 l80 0 0 34 c0 40 -11 46 -82 46
-68 0 -60 24 10 28 l52 3 0 55 0 54 -52 -1 c-29 0 -63 -4 -75 -9z"/>
<path d="M3214 2454 c-8 -30 1 -177 11 -193 3 -6 35 -11 71 -11 57 0 64 2 64
20 0 17 -7 20 -40 20 -36 0 -40 3 -40 25 0 22 4 25 35 25 43 0 49 27 8 32 -20
2 -29 9 -31 26 -3 19 1 22 32 22 33 0 36 2 36 30 l0 30 -70 0 c-67 0 -70 -1
-76 -26z"/>
<path d="M3433 2470 c-21 -8 -23 -16 -23 -75 l0 -65 40 -6 c49 -8 53 -24 5
-24 -28 0 -35 -4 -35 -20 0 -18 7 -20 80 -20 l80 0 0 34 c0 40 -11 46 -82 46
-68 0 -60 24 10 28 l52 3 0 55 0 54 -52 -1 c-29 0 -63 -4 -75 -9z"/>
</g>
</svg>
